PathFileType	4	(X/Y/Z)	C:\Users\86182\Documents\cortex\Trimmed_M1_L8.trc
DataRate	CameraRate	NumFrames	NumMarkers	Units	OrigDataRate	OrigDataStartFrame	OrigNumFrames
100.00	100.00	       84	2	mm	100.00	381	       951
Frame#	Time	gripper			box			
		X1	Y1	Z1	X2	Y2	Z2	

381	3.800	198.39778	195.03481	288.31375	199.61649	194.47160	149.27602	
382	3.810	198.47002	194.89964	288.74033	199.56999	194.54826	149.61333	
383	3.820	198.24623	194.88477	289.02133	199.41747	194.47391	149.84769	
384	3.830	198.33957	194.92230	289.26483	199.32469	194.41327	150.62733	
385	3.840	198.43909	195.01147	290.02637	199.27113	194.51369	151.02567	
386	3.850	198.38751	194.98279	290.16122	199.43338	194.61766	151.19051	
387	3.860	198.46294	194.94974	290.40909	199.77315	194.59409	151.30316	
388	3.870	198.58434	194.94167	290.74075	199.58357	194.49911	151.76656	
389	3.880	198.37268	194.76343	291.14520	199.44414	194.43375	152.02643	
390	3.890	198.58919	194.97343	291.44391	199.38065	194.42947	152.43507	
391	3.900	198.46942	194.99391	291.61139	199.68330	194.53847	152.78719	
392	3.910	198.51237	195.05013	291.88663	199.52046	194.66533	153.05302	
393	3.920	198.46443	195.06514	292.01904	199.57426	194.75273	153.14990	
394	3.930	198.57147	195.03903	292.11209	199.56395	194.66806	153.23593	
395	3.940	198.51566	194.93018	292.35205	199.59433	194.64436	153.33919	
396	3.950	198.38062	194.87541	292.60269	199.64276	194.58452	153.47549	
397	3.960	198.61995	195.02264	292.81024	199.58113	194.60501	153.60988	
398	3.970	198.51175	195.07335	292.99811	199.48087	194.64513	153.71562	
399	3.980	198.51656	195.09117	293.04398	199.50015	194.67270	153.98969	
400	3.990	198.45683	195.11276	293.10739	199.51489	194.63635	154.02005	
401	4.000	198.31656	195.15570	293.13751	199.35146	194.63277	154.09624	
402	4.010	198.24361	195.19980	293.17902	199.27057	194.61382	154.15172	
403	4.020	198.27159	195.19360	293.18118	199.35117	194.57452	154.16069	
404	4.030	198.34808	195.16133	293.17996	199.33305	194.56396	154.20593	
405	4.040	198.32021	195.16850	293.18759	199.35451	194.55426	154.20645	
406	4.050	198.35457	195.15453	293.20261	199.36394	194.55573	154.21078	
407	4.060	198.49725	195.12328	293.17902	199.37999	194.57452	154.21539	
408	4.070	198.51254	195.11670	293.18484	199.39438	194.57483	154.21727	
409	4.080	198.51941	195.11609	293.18387	199.41428	194.55702	154.20906	
410	4.090	198.51801	195.11365	293.17813	199.49217	194.59018	154.20341	
411	4.100	198.54196	195.09909	293.17068	199.44516	194.53856	154.18619	
412	4.110	198.57663	195.06364	293.13297	199.50996	194.52835	154.17146	
413	4.120	198.60396	195.05510	293.13959	199.54803	194.51244	154.16078	
414	4.130	198.56734	195.08185	293.15936	199.50880	194.51895	154.17206	
415	4.140	198.54509	195.10005	293.17505	199.51418	194.53723	154.18266	
416	4.150	198.56412	195.08817	293.16855	199.59238	194.55220	154.17450	
417	4.160	198.54190	195.10204	293.17615	199.55685	194.55130	154.17303	
418	4.170	198.55783	195.09210	293.17072	199.59431	194.55515	154.17488	
419	4.180	198.62122	195.03909	293.12390	199.55684	194.51059	154.15865	
420	4.190	198.62723	195.03258	293.11670	199.56145	194.51071	154.15659	
421	4.200	198.51257	195.00047	293.10754	199.62259	194.54321	154.06998	
422	4.210	198.49997	194.99789	293.10638	199.65088	194.53981	154.03448	
423	4.220	198.53810	195.01190	293.07312	199.67961	194.45215	153.86156	
424	4.230	198.47269	194.99927	293.04489	199.60837	194.37511	153.84180	
425	4.240	198.33479	194.87019	292.99796	199.56392	194.35977	153.78731	
426	4.250	198.24561	194.78473	292.87061	199.50928	194.33618	153.72964	
427	4.260	198.26457	194.77490	292.85196	199.47717	194.29102	153.75652	
428	4.270	198.26807	194.80157	292.89700	199.51836	194.32735	153.76398	
429	4.280	198.43549	194.97211	293.03110	199.60492	194.39023	153.80585	
430	4.290	198.58499	195.01353	293.05176	199.68402	194.44426	153.85086	
431	4.300	198.58495	195.01163	293.05991	199.68402	194.44426	153.85086	
432	4.310	198.64893	195.00148	293.05475	199.67361	194.43503	153.86678	
433	4.320	198.68509	194.98729	293.05811	199.73703	194.43721	153.84991	
434	4.330	198.64893	195.00148	293.05475	199.72433	194.39699	153.82880	
435	4.340	198.72127	194.97153	293.05850	199.71878	194.40073	153.83133	
436	4.350	198.65077	194.99521	293.04944	199.68770	194.37094	153.82005	
437	4.360	198.56961	194.97336	293.02673	199.65009	194.36533	153.81024	
438	4.370	198.44591	194.88113	292.94046	199.66306	194.36531	153.77417	
439	4.380	198.42682	194.91153	292.94962	199.65298	194.37813	153.80093	
440	4.390	198.47046	194.90247	292.98615	199.59218	194.36749	153.80618	
441	4.400	198.47377	194.92746	293.02515	199.59218	194.36749	153.80618	
442	4.410	198.52640	194.96126	293.04501	199.60394	194.37798	153.82780	
443	4.420	198.53786	194.99033	293.06909	199.64719	194.40739	153.84277	
444	4.430	198.59727	195.00444	293.05795	199.66612	194.42087	153.85251	
445	4.440	198.63460	195.00668	293.05267	199.69997	194.44081	153.84863	
446	4.450	198.57416	194.99167	293.05164	199.68007	194.41064	153.84970	
447	4.460	198.55409	194.97983	293.06805	199.61534	194.37230	153.86044	
448	4.470	198.47231	194.92880	293.02655	199.59042	194.36781	153.81207	
449	4.480	198.39786	194.90263	292.97910	199.57027	194.35805	153.80270	
450	4.490	198.43344	194.89240	292.97699	199.60751	194.36769	153.82480	
451	4.500	198.40631	194.89156	292.99210	199.62918	194.36658	153.78835	
452	4.510	198.55911	194.96991	293.01974	199.65546	194.37823	153.80544	
453	4.520	198.60048	194.98755	293.04773	199.68983	194.39888	153.84061	
454	4.530	198.62463	194.97903	293.05176	199.72189	194.40399	153.83090	
455	4.540	198.68433	194.97562	293.05530	199.70648	194.36385	153.82864	
456	4.550	198.67615	194.95325	293.05261	199.65805	194.39378	153.85022	
457	4.560	198.63501	195.00534	293.05048	199.75145	194.40958	153.82664	
458	4.570	198.63489	195.00577	293.05118	199.73927	194.44121	153.83195	
459	4.580	198.61314	195.00485	293.04462	199.70018	194.43237	153.83513	
460	4.590	198.58549	195.01198	293.03244	199.70459	194.41469	153.82774	
461	4.600	198.52614	195.01085	293.03445	199.65686	194.36436	153.79463	
462	4.610	198.36902	194.88614	292.95877	199.57143	194.38007	153.76215	
463	4.620	198.32646	194.86661	292.97659	199.64268	194.36525	153.78632	
464	4.630	198.43213	194.92546	293.01816	199.58672	194.36894	153.80287	
